<?xml version="1.0" encoding="utf-8"?>
<!-- Generator: Adobe Illustrator 24.0.2, SVG Export Plug-In . SVG Version: 6.00 Build 0)  -->
<svg version="1.1" id="Calque_1" xmlns="http://www.w3.org/2000/svg" xmlns:xlink="http://www.w3.org/1999/xlink" x="0px" y="0px"
	 viewBox="0 0 1004 306" style="enable-background:new 0 0 1004 306;" xml:space="preserve">
<style type="text/css">
	.st0{display:none;fill:url(#SVGID_1_);}
	.st1{fill:url(#SVGID_2_);}
	.st2{fill:#294B99;}
</style>
<linearGradient id="SVGID_1_" gradientUnits="userSpaceOnUse" x1="28.283" y1="148.5283" x2="981.3396" y2="148.5283">
	<stop  offset="0" style="stop-color:#1CA9C8"/>
	<stop  offset="0.1748" style="stop-color:#208BB9"/>
	<stop  offset="0.3933" style="stop-color:#246DAA"/>
	<stop  offset="0.6073" style="stop-color:#27579F"/>
	<stop  offset="0.8128" style="stop-color:#284998"/>
	<stop  offset="1" style="stop-color:#294596"/>
</linearGradient>
<path class="st0" d="M504.81-328C241.63-328,28.28-114.65,28.28,148.53s213.35,476.53,476.53,476.53s476.53-213.35,476.53-476.53
	S767.99-328,504.81-328z M396,421.5H225.27L344.84,96.37H198.02l15.2-40.97h276.51l-0.01,0.03h47.32l-15.27,40.97H399.96
	l-101.9,274.16h117L396,421.5z M434.86,265.87c-21.9,0.07-40.1,0.17-53.86,0.36l15.99-42.25c13.25,0,28.76,0.01,53.42,0.03
	L434.86,265.87z M631.51,263.99c-34.03,1.41-103.26,1.63-162.66,1.78l15.48-41.74c49.81,0.03,110.91,0.02,135.7-0.18
	c78.26-0.62,143.62-61.34,150.19-142.22c6.05-74.51-44.22-144.5-120.51-160.83c-14.24-3.05-29.1-4.36-43.68-4.42
	c-89.21-0.39-188.02,0.5-277.23,0.48l16.08-41.19c45.47-0.21,90.94-0.06,136.41-0.06c44.6,0,89.21-0.03,133.81,0.01
	c100.17,0.08,183.84,71.93,195.11,171.09C824.25,170.36,730.44,259.9,631.51,263.99z M555.92,96.39l14.96-40.97h53.14l-15.06,40.97
	H555.92z"/>
<linearGradient id="SVGID_2_" gradientUnits="userSpaceOnUse" x1="42" y1="148.5283" x2="304.4693" y2="148.5283">
	<stop  offset="0" style="stop-color:#1CA9C8"/>
	<stop  offset="0.1748" style="stop-color:#208BB9"/>
	<stop  offset="0.3933" style="stop-color:#246DAA"/>
	<stop  offset="0.6073" style="stop-color:#27579F"/>
	<stop  offset="0.8128" style="stop-color:#284998"/>
	<stop  offset="1" style="stop-color:#294596"/>
</linearGradient>
<path class="st1" d="M173.23,17.29C100.76,17.29,42,76.05,42,148.53s58.76,131.23,131.23,131.23s131.23-58.76,131.23-131.23
	S245.71,17.29,173.23,17.29z M143.27,223.7H96.25l32.93-89.54H88.74l4.19-11.28h76.15l0,0.01h13.03l-4.2,11.28h-33.54l-28.06,75.5
	h32.22L143.27,223.7z M153.97,180.84c-6.03,0.02-11.04,0.05-14.83,0.1l4.4-11.64c3.65,0,7.92,0,14.71,0.01L153.97,180.84z
	 M208.13,180.33c-9.37,0.39-28.44,0.45-44.8,0.49l4.26-11.49c13.72,0.01,30.54,0,37.37-0.05c21.55-0.17,39.55-16.89,41.36-39.17
	c1.67-20.52-12.18-39.79-33.19-44.29c-3.92-0.84-8.01-1.2-12.03-1.22c-24.57-0.11-51.78,0.14-76.35,0.13l4.43-11.34
	c12.52-0.06,25.04-0.02,37.57-0.02c12.28,0,24.57-0.01,36.85,0c27.59,0.02,50.63,19.81,53.73,47.12
	C261.21,154.54,235.37,179.2,208.13,180.33z M187.31,134.17l4.12-11.28h14.64l-4.15,11.28H187.31z"/>
<g>
	<g>
		<g>
			<path class="st2" d="M354.96,162.09h14.36c9.19,0,16.61,3.29,16.61,13.44c0,9.82-7.5,14.17-16.35,14.17h-5.17v14.18h-9.45V162.09
				z M369.02,182.2c5.2,0,7.65-2.32,7.65-6.67c0-4.37-2.8-5.94-7.91-5.94h-4.35v12.61H369.02z"/>
			<path class="st2" d="M391.2,182.81c0-13.65,7.71-21.48,18.98-21.48c11.27,0,18.98,7.88,18.98,21.48
				c0,13.65-7.71,21.84-18.98,21.84C398.91,204.65,391.2,196.46,391.2,182.81z M419.48,182.81c0-8.38-3.6-13.33-9.3-13.33
				c-5.7,0-9.3,4.95-9.3,13.33c0,8.38,3.6,13.69,9.3,13.69C415.88,196.49,419.48,191.18,419.48,182.81z"/>
			<path class="st2" d="M432.97,162.09h9.68l2.9,19.52c0.55,4.41,1.15,8.81,1.7,13.22h0.26c0.81-4.41,1.65-8.86,2.49-13.22
				l4.49-19.52h8.01l4.49,19.52c0.84,4.25,1.67,8.76,2.51,13.22h0.26c0.55-4.46,1.13-8.92,1.68-13.22l2.9-19.52h9.03l-7.42,41.79
				h-11.88l-4.09-18.98c-0.66-3.23-1.22-6.58-1.67-9.7h-0.26c-0.51,3.12-1.03,6.47-1.7,9.7l-3.96,18.98h-11.67L432.97,162.09z"/>
			<path class="st2" d="M489.16,162.09h26.18v7.92h-16.74v8.39h14.25v7.92h-14.25v9.63h17.38v7.92h-26.83V162.09z"/>
			<path class="st2" d="M524.29,162.09h15.05c8.86,0,16.13,3.08,16.13,13.01c0,9.6-7.26,13.74-16.13,13.74h-5.6v15.04h-9.45V162.09z
				 M538.58,181.34c4.97,0,7.64-2.13,7.64-6.24c0-4.13-2.67-5.51-7.64-5.51h-4.83v11.75H538.58z M537.62,186.35l6.53-6.04
				l13.34,23.57h-10.57L537.62,186.35z"/>
			<path class="st2" d="M571.77,170.01h-11.5v-7.92h32.45v7.92h-11.5v33.87h-9.45V170.01z"/>
			<path class="st2" d="M599.25,162.09h26.18v7.92H608.7v8.39h14.25v7.92H608.7v9.63h17.38v7.92h-26.83V162.09z"/>
			<path class="st2" d="M632.41,183.23c0-13.86,9.17-21.91,19.73-21.91c5.4,0,9.75,2.54,12.57,5.42l-4.98,6.06
				c-2.1-1.95-4.35-3.33-7.38-3.33c-5.73,0-10.26,5.05-10.26,13.43c0,8.59,4,13.58,10.1,13.58c3.43,0,6.13-1.69,8.18-3.91l4.98,5.93
				c-3.47,4.04-8.09,6.13-13.5,6.13C641.26,204.65,632.41,197.3,632.41,183.23z"/>
			<path class="st2" d="M671.7,162.09h9.45v16.1h14.42v-16.1h9.45v41.79h-9.45v-17.45h-14.42v17.45h-9.45V162.09z"/>
			<path class="st2" d="M727.74,162.09h26.18v7.92h-16.74v8.39h14.25v7.92h-14.25v9.63h17.38v7.92h-26.83V162.09z"/>
			<path class="st2" d="M762.87,162.09h10.31l6.78,18.57c0.84,2.47,1.57,5.14,2.41,7.72h0.26c0.84-2.57,1.55-5.25,2.38-7.72
				l6.57-18.57h10.31v41.79h-8.6v-15.34c0-4.07,0.76-10.15,1.21-14.2h-0.26l-3.43,9.89l-5.91,16.01h-5.24l-5.92-16.01l-3.33-9.89
				h-0.26c0.45,4.04,1.21,10.13,1.21,14.2v15.34h-8.47V162.09z"/>
			<path class="st2" d="M811.73,162.09h14.36c9.2,0,16.61,3.29,16.61,13.44c0,9.82-7.5,14.17-16.35,14.17h-5.17v14.18h-9.45V162.09z
				 M825.79,182.2c5.2,0,7.65-2.32,7.65-6.67c0-4.37-2.8-5.94-7.91-5.94h-4.35v12.61H825.79z"/>
			<path class="st2" d="M849.94,162.09h9.45v41.79h-9.45V162.09z"/>
			<path class="st2" d="M869.24,162.09h15.05c8.86,0,16.13,3.08,16.13,13.01c0,9.6-7.26,13.74-16.13,13.74h-5.6v15.04h-9.45V162.09z
				 M883.52,181.34c4.97,0,7.64-2.13,7.64-6.24c0-4.13-2.67-5.51-7.64-5.51h-4.83v11.75H883.52z M882.56,186.35l6.53-6.04
				l13.34,23.57h-10.57L882.56,186.35z"/>
			<path class="st2" d="M908.55,162.09h26.18v7.92h-16.74v8.39h14.25v7.92h-14.25v9.63h17.38v7.92h-26.83V162.09z"/>
		</g>
	</g>
</g>
</svg>
